<svg width="113" height="96" viewBox="0 0 113 96" fill="none" xmlns="http://www.w3.org/2000/svg">
<path d="M3.636 12.86C3.968 12.86 4.26 12.816 4.512 12.728C4.768 12.64 4.982 12.518 5.154 12.362C5.33 12.202 5.462 12.012 5.55 11.792C5.638 11.572 5.682 11.33 5.682 11.066C5.682 10.518 5.512 10.09 5.172 9.782C4.836 9.474 4.324 9.32 3.636 9.32H2.256V12.86H3.636ZM3.636 8.402C4.18 8.402 4.652 8.466 5.052 8.594C5.456 8.718 5.79 8.896 6.054 9.128C6.318 9.36 6.514 9.64 6.642 9.968C6.774 10.296 6.84 10.662 6.84 11.066C6.84 11.466 6.77 11.832 6.63 12.164C6.49 12.496 6.284 12.782 6.012 13.022C5.744 13.262 5.41 13.45 5.01 13.586C4.614 13.718 4.156 13.784 3.636 13.784H2.256V17H1.098V8.402H3.636ZM10.2986 10.826C10.7426 10.826 11.1426 10.9 11.4986 11.048C11.8546 11.196 12.1586 11.406 12.4106 11.678C12.6626 11.95 12.8546 12.28 12.9866 12.668C13.1226 13.052 13.1906 13.482 13.1906 13.958C13.1906 14.438 13.1226 14.87 12.9866 15.254C12.8546 15.638 12.6626 15.966 12.4106 16.238C12.1586 16.51 11.8546 16.72 11.4986 16.868C11.1426 17.012 10.7426 17.084 10.2986 17.084C9.85063 17.084 9.44663 17.012 9.08663 16.868C8.73063 16.72 8.42663 16.51 8.17463 16.238C7.92263 15.966 7.72863 15.638 7.59263 15.254C7.46063 14.87 7.39463 14.438 7.39463 13.958C7.39463 13.482 7.46063 13.052 7.59263 12.668C7.72863 12.28 7.92263 11.95 8.17463 11.678C8.42663 11.406 8.73063 11.196 9.08663 11.048C9.44663 10.9 9.85063 10.826 10.2986 10.826ZM10.2986 16.25C10.8986 16.25 11.3466 16.05 11.6426 15.65C11.9386 15.246 12.0866 14.684 12.0866 13.964C12.0866 13.24 11.9386 12.676 11.6426 12.272C11.3466 11.868 10.8986 11.666 10.2986 11.666C9.99463 11.666 9.72863 11.718 9.50063 11.822C9.27663 11.926 9.08863 12.076 8.93663 12.272C8.78863 12.468 8.67663 12.71 8.60063 12.998C8.52863 13.282 8.49263 13.604 8.49263 13.964C8.49263 14.684 8.64063 15.246 8.93663 15.65C9.23663 16.05 9.69063 16.25 10.2986 16.25ZM22.8335 10.922L20.8655 17H20.0195C19.9155 17 19.8435 16.932 19.8035 16.796L18.4595 12.674C18.4275 12.582 18.4015 12.49 18.3815 12.398C18.3615 12.302 18.3415 12.208 18.3215 12.116C18.3015 12.208 18.2815 12.302 18.2615 12.398C18.2415 12.49 18.2155 12.584 18.1835 12.68L16.8155 16.796C16.7795 16.932 16.6995 17 16.5755 17H15.7715L13.8035 10.922H14.6435C14.7275 10.922 14.7975 10.944 14.8535 10.988C14.9135 11.032 14.9535 11.084 14.9735 11.144L16.1375 15.056C16.2055 15.344 16.2595 15.616 16.2995 15.872C16.3355 15.74 16.3715 15.606 16.4075 15.47C16.4475 15.334 16.4895 15.196 16.5335 15.056L17.8175 11.12C17.8375 11.06 17.8715 11.01 17.9195 10.97C17.9715 10.93 18.0335 10.91 18.1055 10.91H18.5735C18.6535 10.91 18.7195 10.93 18.7715 10.97C18.8235 11.01 18.8595 11.06 18.8795 11.12L20.1335 15.056C20.1775 15.196 20.2175 15.334 20.2535 15.47C20.2895 15.606 20.3235 15.74 20.3555 15.872C20.3755 15.74 20.3995 15.608 20.4275 15.476C20.4595 15.34 20.4935 15.2 20.5295 15.056L21.7175 11.144C21.7375 11.08 21.7755 11.028 21.8315 10.988C21.8875 10.944 21.9535 10.922 22.0295 10.922H22.8335ZM27.8593 13.298C27.8593 13.05 27.8233 12.824 27.7513 12.62C27.6833 12.412 27.5813 12.234 27.4453 12.086C27.3133 11.934 27.1513 11.818 26.9593 11.738C26.7673 11.654 26.5493 11.612 26.3053 11.612C25.7933 11.612 25.3873 11.762 25.0873 12.062C24.7913 12.358 24.6073 12.77 24.5353 13.298H27.8593ZM28.7233 16.148C28.5913 16.308 28.4333 16.448 28.2493 16.568C28.0653 16.684 27.8673 16.78 27.6553 16.856C27.4473 16.932 27.2313 16.988 27.0073 17.024C26.7833 17.064 26.5613 17.084 26.3413 17.084C25.9213 17.084 25.5333 17.014 25.1773 16.874C24.8253 16.73 24.5193 16.522 24.2593 16.25C24.0033 15.974 23.8033 15.634 23.6593 15.23C23.5153 14.826 23.4433 14.362 23.4433 13.838C23.4433 13.414 23.5073 13.018 23.6353 12.65C23.7673 12.282 23.9553 11.964 24.1993 11.696C24.4433 11.424 24.7413 11.212 25.0933 11.06C25.4453 10.904 25.8413 10.826 26.2813 10.826C26.6453 10.826 26.9813 10.888 27.2893 11.012C27.6013 11.132 27.8693 11.308 28.0933 11.54C28.3213 11.768 28.4993 12.052 28.6273 12.392C28.7553 12.728 28.8193 13.112 28.8193 13.544C28.8193 13.712 28.8013 13.824 28.7653 13.88C28.7293 13.936 28.6613 13.964 28.5613 13.964H24.4993C24.5113 14.348 24.5633 14.682 24.6553 14.966C24.7513 15.25 24.8833 15.488 25.0513 15.68C25.2193 15.868 25.4193 16.01 25.6513 16.106C25.8833 16.198 26.1433 16.244 26.4313 16.244C26.6993 16.244 26.9293 16.214 27.1213 16.154C27.3173 16.09 27.4853 16.022 27.6253 15.95C27.7653 15.878 27.8813 15.812 27.9733 15.752C28.0693 15.688 28.1513 15.656 28.2193 15.656C28.3073 15.656 28.3753 15.69 28.4233 15.758L28.7233 16.148ZM31.1452 12.14C31.3372 11.724 31.5732 11.4 31.8532 11.168C32.1332 10.932 32.4752 10.814 32.8792 10.814C33.0072 10.814 33.1292 10.828 33.2452 10.856C33.3652 10.884 33.4712 10.928 33.5632 10.988L33.4852 11.786C33.4612 11.886 33.4012 11.936 33.3052 11.936C33.2492 11.936 33.1672 11.924 33.0592 11.9C32.9512 11.876 32.8292 11.864 32.6932 11.864C32.5012 11.864 32.3292 11.892 32.1772 11.948C32.0292 12.004 31.8952 12.088 31.7752 12.2C31.6592 12.308 31.5532 12.444 31.4572 12.608C31.3652 12.768 31.2812 12.952 31.2052 13.16V17H30.1312V10.922H30.7432C30.8592 10.922 30.9392 10.944 30.9832 10.988C31.0272 11.032 31.0572 11.108 31.0732 11.216L31.1452 12.14ZM38.3242 13.298C38.3242 13.05 38.2882 12.824 38.2162 12.62C38.1482 12.412 38.0462 12.234 37.9102 12.086C37.7782 11.934 37.6162 11.818 37.4242 11.738C37.2322 11.654 37.0142 11.612 36.7702 11.612C36.2582 11.612 35.8522 11.762 35.5522 12.062C35.2562 12.358 35.0722 12.77 35.0002 13.298H38.3242ZM39.1882 16.148C39.0562 16.308 38.8982 16.448 38.7142 16.568C38.5302 16.684 38.3322 16.78 38.1202 16.856C37.9122 16.932 37.6962 16.988 37.4722 17.024C37.2482 17.064 37.0262 17.084 36.8062 17.084C36.3862 17.084 35.9982 17.014 35.6422 16.874C35.2902 16.73 34.9842 16.522 34.7242 16.25C34.4682 15.974 34.2682 15.634 34.1242 15.23C33.9802 14.826 33.9082 14.362 33.9082 13.838C33.9082 13.414 33.9722 13.018 34.1002 12.65C34.2322 12.282 34.4202 11.964 34.6642 11.696C34.9082 11.424 35.2062 11.212 35.5582 11.06C35.9102 10.904 36.3062 10.826 36.7462 10.826C37.1102 10.826 37.4462 10.888 37.7542 11.012C38.0662 11.132 38.3342 11.308 38.5582 11.54C38.7862 11.768 38.9642 12.052 39.0922 12.392C39.2202 12.728 39.2842 13.112 39.2842 13.544C39.2842 13.712 39.2662 13.824 39.2302 13.88C39.1942 13.936 39.1262 13.964 39.0262 13.964H34.9642C34.9762 14.348 35.0282 14.682 35.1202 14.966C35.2162 15.25 35.3482 15.488 35.5162 15.68C35.6842 15.868 35.8842 16.01 36.1162 16.106C36.3482 16.198 36.6082 16.244 36.8962 16.244C37.1642 16.244 37.3942 16.214 37.5862 16.154C37.7822 16.09 37.9502 16.022 38.0902 15.95C38.2302 15.878 38.3462 15.812 38.4382 15.752C38.5342 15.688 38.6162 15.656 38.6842 15.656C38.7722 15.656 38.8402 15.69 38.8882 15.758L39.1882 16.148ZM44.556 12.368C44.356 12.1 44.14 11.914 43.908 11.81C43.676 11.702 43.416 11.648 43.128 11.648C42.564 11.648 42.13 11.85 41.826 12.254C41.522 12.658 41.37 13.234 41.37 13.982C41.37 14.378 41.404 14.718 41.472 15.002C41.54 15.282 41.64 15.514 41.772 15.698C41.904 15.878 42.066 16.01 42.258 16.094C42.45 16.178 42.668 16.22 42.912 16.22C43.264 16.22 43.57 16.14 43.83 15.98C44.094 15.82 44.336 15.594 44.556 15.302V12.368ZM45.624 8.162V17H44.988C44.836 17 44.74 16.926 44.7 16.778L44.604 16.04C44.344 16.352 44.048 16.604 43.716 16.796C43.384 16.988 43 17.084 42.564 17.084C42.216 17.084 41.9 17.018 41.616 16.886C41.332 16.75 41.09 16.552 40.89 16.292C40.69 16.032 40.536 15.708 40.428 15.32C40.32 14.932 40.266 14.486 40.266 13.982C40.266 13.534 40.326 13.118 40.446 12.734C40.566 12.346 40.738 12.01 40.962 11.726C41.186 11.442 41.46 11.22 41.784 11.06C42.112 10.896 42.48 10.814 42.888 10.814C43.26 10.814 43.578 10.878 43.842 11.006C44.11 11.13 44.348 11.304 44.556 11.528V8.162H45.624ZM51.4552 15.536C51.6512 15.8 51.8652 15.986 52.0972 16.094C52.3332 16.202 52.5912 16.256 52.8712 16.256C53.4432 16.256 53.8812 16.054 54.1852 15.65C54.4892 15.246 54.6412 14.644 54.6412 13.844C54.6412 13.1 54.5052 12.554 54.2332 12.206C53.9652 11.854 53.5812 11.678 53.0812 11.678C52.7332 11.678 52.4292 11.758 52.1692 11.918C51.9132 12.078 51.6752 12.304 51.4552 12.596V15.536ZM51.4552 11.798C51.7112 11.502 51.9992 11.266 52.3192 11.09C52.6432 10.914 53.0152 10.826 53.4352 10.826C53.7912 10.826 54.1112 10.894 54.3952 11.03C54.6832 11.166 54.9272 11.364 55.1272 11.624C55.3272 11.88 55.4792 12.192 55.5832 12.56C55.6912 12.928 55.7452 13.342 55.7452 13.802C55.7452 14.294 55.6852 14.742 55.5652 15.146C55.4452 15.55 55.2712 15.896 55.0432 16.184C54.8192 16.468 54.5452 16.69 54.2212 16.85C53.8972 17.006 53.5332 17.084 53.1292 17.084C52.7292 17.084 52.3912 17.01 52.1152 16.862C51.8432 16.71 51.6052 16.496 51.4012 16.22L51.3472 16.772C51.3152 16.924 51.2232 17 51.0712 17H50.3812V8.162H51.4552V11.798ZM62.1877 10.922L58.7977 18.794C58.7617 18.874 58.7157 18.938 58.6597 18.986C58.6077 19.034 58.5257 19.058 58.4137 19.058H57.6217L58.7317 16.646L56.2237 10.922H57.1477C57.2397 10.922 57.3117 10.946 57.3637 10.994C57.4197 11.038 57.4577 11.088 57.4777 11.144L59.1037 14.972C59.1677 15.14 59.2217 15.316 59.2657 15.5C59.3217 15.312 59.3817 15.134 59.4457 14.966L61.0237 11.144C61.0477 11.08 61.0877 11.028 61.1437 10.988C61.2037 10.944 61.2697 10.922 61.3417 10.922H62.1877Z" fill="#0B0B0C"/>
<path d="M26.2087 38.9507C26.5037 38.198 27.5875 38.198 27.8825 38.9507L38.5404 65.584H44.4144L33.314 37.8249C31.0824 32.2538 23.0409 32.2538 20.7772 37.8249L9.68323 65.584H15.5573L26.2087 38.9507Z" fill="url(#paint0_linear_33_667)"/>
<path d="M50.7758 33.6755C48.6596 33.6755 46.973 35.4382 46.973 37.5676V61.6855C46.973 63.8471 48.6916 65.5776 50.7758 65.5776H62.729C69.0968 65.5776 74.1757 60.2959 74.1757 53.747V45.4675C74.1757 38.9507 69.1032 33.6369 62.729 33.6369L50.7758 33.6626V33.6755ZM69.1545 53.2902C69.1545 57.6455 66.878 61.1966 62.5944 61.1966H53.3857C52.8471 61.1966 52.4174 60.7591 52.4174 60.2252V39.0601C52.4174 38.5197 52.8535 38.0887 53.3857 38.0887H61.4016C65.6596 38.0887 69.1225 41.6076 69.1225 45.995L69.1481 53.2967L69.1545 53.2902Z" fill="url(#paint1_linear_33_667)"/>
<path d="M89.5405 61.1451C85.3017 61.1451 81.8517 57.594 81.8517 53.2387V45.9371C81.8517 41.5818 85.3017 38.0307 89.5405 38.0307H102.789V33.6433H88.2516C81.9094 33.6433 76.7472 38.9249 76.7472 45.4739V53.7534C76.7472 60.2702 81.8838 65.584 88.2516 65.584H102.789V61.1708H89.5405V61.1451Z" fill="url(#paint2_linear_33_667)"/>
<path d="M59.1699 83.2302V72.4868H63.3574C65.9417 72.4868 67.2371 73.7863 67.2371 76.3789V79.3381C67.2371 81.9307 65.9417 83.2302 63.3574 83.2302H59.1699ZM60.4717 82.0465H63.4344C65.1017 82.0465 65.9353 81.2102 65.9353 79.5376V76.173C65.9353 74.5004 65.1017 73.6641 63.4344 73.6641H60.4717V82.0401V82.0465Z" fill="#676867"/>
<path d="M69.5328 73.6705V72.2359H70.8346V73.6705H69.5328ZM69.5649 83.2302V75.1373H70.809V83.2302H69.5649Z" fill="#676867"/>
<path d="M73.1625 80.895V77.4725C73.1625 75.9157 73.9384 75.1373 75.4903 75.1373H79.8381V84.0086C79.8381 85.5654 79.0622 86.3438 77.5103 86.3438H74.4065L73.7845 85.8742V85.2502H77.5103C78.2349 85.2502 78.594 84.8835 78.594 84.163V83.2302H75.4903C73.9384 83.2302 73.1625 82.4518 73.1625 80.895ZM74.4065 81.0493C74.4065 81.7763 74.7657 82.1366 75.4903 82.1366H78.594V76.218H75.4903C74.7657 76.218 74.4065 76.5783 74.4065 77.3052V81.0429V81.0493Z" fill="#676867"/>
<path d="M82.2877 73.6705V72.2359H83.5895V73.6705H82.2877ZM82.3198 83.2302V75.1373H83.5638V83.2302H82.3198Z" fill="#676867"/>
<path d="M85.9814 80.895V72.4868H87.2255V75.1308H90.1753V76.2181H87.2255V81.0429C87.2255 81.7699 87.5846 82.1301 88.3093 82.1301H90.3293V82.7542L89.7072 83.2238H88.3093C86.7574 83.2238 85.9814 82.4454 85.9814 80.8885V80.895Z" fill="#676867"/>
<path d="M94.0357 83.2302C92.471 83.2302 91.6951 82.4453 91.6951 80.8821C91.6951 79.3188 92.4774 78.534 94.0357 78.534H96.8765V77.3181C96.8765 76.5912 96.5174 76.2309 95.7928 76.2309H92.471V75.6069L93.093 75.1373H95.7928C97.3447 75.1373 98.1206 75.9157 98.1206 77.4725V83.2302H94.0421H94.0357ZM92.9327 81.0493C92.9327 81.7763 93.2918 82.1366 94.0165 82.1366H96.8701V79.6147H94.0165C93.2918 79.6147 92.9327 79.975 92.9327 80.702V81.0429V81.0493Z" fill="#676867"/>
<path d="M100.48 81.0172V71.7084H101.725V81.1458C101.725 81.8535 102.084 82.2266 102.808 82.2652V83.3524C101.256 83.3524 100.48 82.574 100.48 81.0172Z" fill="#676867"/>
<path d="M43.7667 76.3531H10.3629C10.0088 76.3531 9.72168 76.6411 9.72168 76.9964V78.7141C9.72168 79.0694 10.0088 79.3574 10.3629 79.3574H43.7667C44.1208 79.3574 44.408 79.0694 44.408 78.7141V76.9964C44.408 76.6411 44.1208 76.3531 43.7667 76.3531Z" fill="url(#paint3_linear_33_667)"/>
<path d="M49.8587 76.3531H47.6143C47.2601 76.3531 46.973 76.6411 46.973 76.9964V78.7141C46.973 79.0694 47.2601 79.3574 47.6143 79.3574H49.8587C50.2129 79.3574 50.5 79.0694 50.5 78.7141V76.9964C50.5 76.6411 50.2129 76.3531 49.8587 76.3531Z" fill="#B51F32"/>
<path d="M55.9508 76.3531H53.7063C53.3522 76.3531 53.0651 76.6411 53.0651 76.9964V78.7141C53.0651 79.0694 53.3522 79.3574 53.7063 79.3574H55.9508C56.3049 79.3574 56.592 79.0694 56.592 78.7141V76.9964C56.592 76.6411 56.3049 76.3531 55.9508 76.3531Z" fill="#B51F32"/>
<defs>
<linearGradient id="paint0_linear_33_667" x1="27.0424" y1="33.6498" x2="27.0424" y2="65.584" gradientUnits="userSpaceOnUse">
<stop offset="0.16" stop-color="#ED1A38"/>
<stop offset="1" stop-color="#B51F32"/>
</linearGradient>
<linearGradient id="paint1_linear_33_667" x1="60.5743" y1="33.6433" x2="60.5743" y2="65.5776" gradientUnits="userSpaceOnUse">
<stop offset="0.16" stop-color="#ED1A38"/>
<stop offset="1" stop-color="#B51F32"/>
</linearGradient>
<linearGradient id="paint2_linear_33_667" x1="89.765" y1="33.6497" x2="89.765" y2="-65.1122" gradientUnits="userSpaceOnUse">
<stop offset="0.16" stop-color="#ED1A38"/>
<stop offset="1" stop-color="#B51F32"/>
</linearGradient>
<linearGradient id="paint3_linear_33_667" x1="18.4686" y1="77.8585" x2="31.884" y2="77.8585" gradientUnits="userSpaceOnUse">
<stop offset="0.16" stop-color="#ED1A38"/>
<stop offset="1" stop-color="#B51F32"/>
</linearGradient>
</defs>
</svg>
