<svg width="213" height="48" viewBox="0 0 213 48" fill="none" xmlns="http://www.w3.org/2000/svg">
<path fill-rule="evenodd" clip-rule="evenodd" d="M154.154 23.6643H164.811C167.217 23.6643 169.203 25.5664 169.203 27.8881V37.5944H153.287C151.804 37.5944 150.601 36.4196 150.601 35.021V31.6643C150.601 30.3496 151.72 29.2587 153.091 29.2587H161.93L160.979 31.2168H154.49C154.21 31.2168 153.874 31.4406 153.874 31.7203V34.3776C153.874 34.6853 154.182 34.9091 154.462 34.9091H165.734V28.5594C165.734 27.3287 164.643 26.3776 163.413 26.3776H152.839L154.154 23.6643ZM90.4056 20.6154V18.5455H86.965V22.5734L90.4056 20.6154ZM86.965 24.5315L90.4056 22.5734V37.5944H86.965V24.5315ZM107.748 23.6643C110.154 23.6643 112.14 25.5664 112.14 27.8881V37.5944H108.699V28.5315C108.699 27.3007 107.608 26.3496 106.378 26.3496H98.1259V37.5944H94.6853V23.6643C99.021 23.6643 103.385 23.6364 107.748 23.6643ZM151.748 23.6643H143.133C140.727 23.6643 138.741 25.5664 138.741 27.8881V37.5944H142.182V28.5315C142.182 27.3007 143.273 26.3496 144.503 26.3496H150.462L151.748 23.6643ZM36.2797 37.5664H39.7203V27.8601C39.7203 25.5385 37.7343 23.6364 35.3287 23.6364H12.7832V37.5664H16.2238V26.8531C16.2238 26.5455 16.5315 26.3496 16.8392 26.3496H23.9441C24.2238 26.3496 24.5315 26.5734 24.5315 26.8811V37.5944H27.972V26.8811C27.972 26.5734 28.2797 26.3776 28.5874 26.3776H33.986C35.2168 26.3776 36.3077 27.3287 36.3077 28.5594L36.2797 37.5664ZM64.951 18.5734V37.5664H68.3916V18.5734H64.951ZM79.2448 37.5664H82.6853V27.8601C82.6853 25.5385 80.6993 23.6364 78.2937 23.6364H70.993L69.7063 26.3217H76.951C78.1818 26.3217 79.2727 27.2727 79.2727 28.5035L79.2448 37.5664ZM133.818 18.5734V37.5664H118.294C116.811 37.5664 115.608 36.3916 115.608 34.993V27.8881C115.608 25.5664 117.594 23.6643 120 23.6643H128.839L127.524 26.3496H121.343C120.112 26.3496 119.021 27.3007 119.021 28.5315V34.3776C119.021 34.6853 119.329 34.9091 119.608 34.9091H130.322V18.6014L133.818 18.5734ZM46.2937 23.6364H56.9511C59.3566 23.6364 61.3427 25.5385 61.3427 27.8601V37.5664H45.4266C43.9441 37.5664 42.7413 36.3916 42.7413 34.993V31.6364C42.7413 30.3217 43.8601 29.2308 45.2308 29.2308H54.0699L53.1189 31.1888H46.6294C46.3497 31.1888 46.014 31.4126 46.014 31.6923V34.3496C46.014 34.6573 46.3217 34.8811 46.6014 34.8811H57.8741V28.5315C57.8741 27.3007 56.7832 26.3496 55.5525 26.3496H44.979L46.2937 23.6364Z" fill="black"/>
<path fill-rule="evenodd" clip-rule="evenodd" d="M192.559 16.8951V16.8112C192.643 16.3357 192.727 15.9161 192.867 15.4965C193.007 15.1049 193.175 14.7413 193.427 14.4336C193.678 14.1259 193.986 13.8741 194.378 13.7063C194.769 13.5385 195.245 13.4545 195.832 13.4545H197.315L197.566 13.4825C197.818 13.5385 198.07 13.5944 198.294 13.7063C198.517 13.8182 198.713 13.9301 198.881 14.0979C199.049 14.2657 199.217 14.4615 199.301 14.6853C199.385 14.9091 199.441 15.1329 199.441 15.4126V15.5804L199.413 15.7483C199.357 16.1678 199.245 16.5035 199.133 16.7832C198.993 17.0629 198.825 17.2587 198.629 17.4266C198.434 17.5664 198.182 17.6783 197.902 17.7343C197.622 17.7902 197.315 17.8182 196.951 17.8182H194.154C194.098 18.0979 194.098 18.3776 194.098 18.5734C194.098 18.7972 194.126 18.993 194.238 19.1329C194.322 19.2727 194.489 19.3846 194.713 19.4685C194.965 19.5524 195.301 19.5804 195.748 19.5804H198.769L197.986 20.8951H194.853C193.846 20.8951 193.231 20.6434 192.867 20.1958C192.503 19.7762 192.364 19.1888 192.364 18.5455C192.364 18.2937 192.392 18.014 192.42 17.7343C192.476 17.4545 192.503 17.1748 192.559 16.8951ZM180.531 14.2098L182.517 13.0909L181.343 20.8671H179.441L179.608 19.7762C179.888 17.958 180.168 16.1399 180.42 14.3217V14.2657L180.531 14.2098ZM181.091 11.2168H182.797L182.657 12.2238L180.559 13.3986L180.895 11.2168H181.091ZM190.741 13.9021L190.154 14.8531H187.077L186.797 14.8811C186.713 14.8811 186.629 14.9091 186.545 14.9371C186.489 14.965 186.406 14.993 186.378 15.021C186.35 15.049 186.294 15.1049 186.266 15.1608C186.238 15.2168 186.21 15.2727 186.182 15.3566C186.154 15.4126 186.154 15.4965 186.154 15.5804C186.154 15.6364 186.154 15.6923 186.182 15.7483C186.21 15.8042 186.238 15.8601 186.294 15.9161C186.35 15.972 186.406 16 186.489 16.0559C186.573 16.1119 186.685 16.1399 186.769 16.1678L189.343 16.7832C189.65 16.8671 189.93 16.979 190.154 17.0909C190.378 17.2308 190.573 17.3986 190.713 17.6224C190.853 17.8182 190.965 18.0699 190.993 18.3217C191.049 18.5734 191.021 18.8531 190.965 19.1329C190.909 19.4685 190.797 19.7762 190.629 20C190.489 20.2238 190.294 20.4196 190.07 20.5594C189.846 20.6993 189.594 20.7832 189.315 20.8392C189.035 20.8951 188.755 20.9231 188.448 20.9231H183.413L184.196 19.6364H187.441C187.664 19.6364 187.86 19.6364 188.056 19.6084C188.252 19.6084 188.42 19.5524 188.559 19.4965C188.699 19.4406 188.811 19.3566 188.895 19.2448C188.979 19.1329 189.063 18.965 189.091 18.7692C189.119 18.6294 189.091 18.5175 189.063 18.4336C189.007 18.3496 188.951 18.2657 188.839 18.1818C188.727 18.0979 188.587 18.042 188.475 17.986C188.336 17.9301 188.196 17.9021 188.056 17.8741L185.79 17.3427C185.51 17.2867 185.259 17.1748 185.035 17.0629C184.811 16.9231 184.643 16.7832 184.503 16.5874C184.364 16.3916 184.28 16.1958 184.224 15.9441C184.196 15.7203 184.196 15.4685 184.224 15.1888C184.28 14.8811 184.392 14.6014 184.531 14.3776C184.671 14.1538 184.839 13.986 185.063 13.8741C185.259 13.7622 185.482 13.6783 185.734 13.6224C185.986 13.5664 186.266 13.5385 186.545 13.5385H190.909L190.741 13.9021ZM175.301 20.7552L173.119 16.5035H171.049L170.406 20.8392H168.503L168.783 19.1049C169.231 16.2238 169.678 13.3427 170.07 10.4895V10.4056H175.58L175.86 10.4336C176.196 10.4895 176.503 10.5734 176.755 10.7133C177.035 10.8531 177.259 11.049 177.427 11.2727C177.594 11.4965 177.734 11.7483 177.846 12.028C177.93 12.3077 177.986 12.6154 177.986 12.951V13.2308L177.958 13.5385C177.874 14.0699 177.734 14.4895 177.538 14.8252C177.343 15.1608 177.063 15.4406 176.783 15.6364C176.503 15.8322 176.224 15.9441 175.888 16.0559C175.608 16.1399 175.329 16.1958 175.021 16.2517L177.482 20.8392H175.329L175.301 20.7552ZM174.601 11.8042H171.748L171.245 15.2168H173.455C173.79 15.2168 174.126 15.1888 174.434 15.1329C174.741 15.0769 175.021 14.993 175.273 14.8531C175.496 14.7133 175.72 14.5455 175.86 14.3217C176 14.0979 176.14 13.8182 176.196 13.4545C176.252 13.1469 176.252 12.8671 176.196 12.6713C176.14 12.4755 176.084 12.3077 175.944 12.1678C175.804 12.028 175.636 11.9441 175.441 11.8881C175.189 11.8601 174.909 11.8322 174.601 11.8042ZM196.503 14.7692H195.832C195.245 14.7692 194.909 14.993 194.713 15.3287C194.517 15.6643 194.434 16.1119 194.35 16.6154H196.615C196.755 16.6154 196.867 16.5874 196.979 16.5594C197.063 16.5315 197.175 16.4755 197.231 16.4196C197.315 16.3636 197.399 16.2517 197.455 16.1399C197.51 16.028 197.566 15.8601 197.594 15.6923C197.622 15.4685 197.622 15.3007 197.594 15.1888C197.566 15.0769 197.51 14.993 197.427 14.9371C197.343 14.8811 197.203 14.8252 197.063 14.7972C196.895 14.7692 196.699 14.7692 196.503 14.7692Z" fill="black"/>
</svg>
